<svg width="25" height="25" viewBox="0 0 25 25" fill="none" xmlns="http://www.w3.org/2000/svg">
<path d="M23.2129 17.4121C23.3596 17.5602 23.4419 17.7603 23.4419 17.9688C23.4419 18.1772 23.3596 18.3773 23.2129 18.5254L20.8691 20.8691C20.7198 21.0135 20.5202 21.0942 20.3125 21.0942C20.1048 21.0942 19.9052 21.0135 19.7559 20.8691C19.6092 20.721 19.5269 20.521 19.5269 20.3125C19.5269 20.104 19.6092 19.904 19.7559 19.7559L20.7715 18.75H19.6191C18.4996 18.748 17.3967 18.4795 16.4016 17.9667C15.4064 17.4538 14.5477 16.7114 13.8965 15.8008L9.82422 10.1074C9.31888 9.3997 8.65233 8.82244 7.87968 8.42338C7.10703 8.02432 6.25048 7.81492 5.38086 7.8125H3.125C2.9178 7.8125 2.71909 7.73019 2.57257 7.58368C2.42606 7.43717 2.34375 7.23845 2.34375 7.03125C2.34375 6.82405 2.42606 6.62534 2.57257 6.47882C2.71909 6.33231 2.9178 6.25 3.125 6.25H5.38086C6.50037 6.25197 7.60331 6.52049 8.59844 7.03333C9.59357 7.54618 10.4523 8.28862 11.1035 9.19922L15.1758 14.8926C15.6811 15.6003 16.3477 16.1776 17.1203 16.5766C17.893 16.9757 18.7495 17.1851 19.6191 17.1875H20.7715L19.7559 16.1816C19.6313 16.0298 19.5676 15.8371 19.5772 15.641C19.5869 15.4449 19.6691 15.2593 19.808 15.1205C19.9468 14.9816 20.1324 14.8994 20.3285 14.8897C20.5246 14.8801 20.7173 14.9438 20.8691 15.0684L23.2129 17.4121ZM13.9648 10.4492C14.0487 10.5093 14.1436 10.5521 14.2441 10.5753C14.3446 10.5985 14.4487 10.6015 14.5504 10.5843C14.6521 10.567 14.7493 10.5298 14.8365 10.4748C14.9238 10.4198 14.9992 10.348 15.0586 10.2637L15.1758 10.1074C15.6811 9.3997 16.3477 8.82244 17.1203 8.42338C17.893 8.02432 18.7495 7.81492 19.6191 7.8125H20.7715L19.7559 8.81836C19.6092 8.96648 19.5269 9.16653 19.5269 9.375C19.5269 9.58348 19.6092 9.78352 19.7559 9.93164C19.9052 10.076 20.1048 10.1567 20.3125 10.1567C20.5202 10.1567 20.7198 10.076 20.8691 9.93164L23.2129 7.58789C23.3596 7.43977 23.4419 7.23973 23.4419 7.03125C23.4419 6.82278 23.3596 6.62273 23.2129 6.47461L20.8691 4.13086C20.7173 4.00628 20.5246 3.94261 20.3285 3.95225C20.1324 3.96188 19.9468 4.04412 19.808 4.18298C19.6691 4.32183 19.5869 4.50737 19.5772 4.70351C19.5676 4.89964 19.6313 5.09235 19.7559 5.24414L20.7715 6.25H19.6191C18.4996 6.25197 17.3967 6.52049 16.4016 7.03333C15.4064 7.54618 14.5477 8.28862 13.8965 9.19922L13.7891 9.35547C13.7285 9.43873 13.685 9.53313 13.6611 9.63326C13.6372 9.73338 13.6332 9.83725 13.6496 9.93889C13.6659 10.0405 13.7022 10.1379 13.7563 10.2255C13.8104 10.3131 13.8813 10.3891 13.9648 10.4492ZM11.0352 14.5508C10.9513 14.4907 10.8564 14.4479 10.7559 14.4247C10.6554 14.4015 10.5513 14.3985 10.4496 14.4157C10.3479 14.433 10.2507 14.4702 10.1635 14.5252C10.0762 14.5802 10.0008 14.652 9.94141 14.7363L9.82422 14.8926C9.31888 15.6003 8.65233 16.1776 7.87968 16.5766C7.10703 16.9757 6.25048 17.1851 5.38086 17.1875H3.125C2.9178 17.1875 2.71909 17.2698 2.57257 17.4163C2.42606 17.5628 2.34375 17.7616 2.34375 17.9688C2.34375 18.176 2.42606 18.3747 2.57257 18.5212C2.71909 18.6677 2.9178 18.75 3.125 18.75H5.38086C6.50037 18.748 7.60331 18.4795 8.59844 17.9667C9.59357 17.4538 10.4523 16.7114 11.1035 15.8008L11.2109 15.6445C11.2715 15.5613 11.315 15.4669 11.3389 15.3667C11.3628 15.2666 11.3668 15.1628 11.3504 15.0611C11.3341 14.9595 11.2978 14.8621 11.2437 14.7745C11.1896 14.6869 11.1187 14.6109 11.0352 14.5508Z" fill="currentColor"/>
</svg>
