<svg width="22" height="22" viewBox="0 0 22 22" fill="none" xmlns="http://www.w3.org/2000/svg">
<path d="M18.5625 19.25C18.4415 19.25 18.3227 19.218 18.2181 19.1572L5.15556 11.5947C5.05138 11.5343 4.9649 11.4475 4.90479 11.3431C4.84467 11.2388 4.81303 11.1204 4.81303 11C4.81303 10.8796 4.84467 10.7612 4.90479 10.6569C4.9649 10.5525 5.05138 10.4657 5.15556 10.4053L18.2181 2.84281C18.3225 2.78233 18.4411 2.75043 18.5618 2.75031C18.6826 2.75019 18.8012 2.78186 18.9058 2.84214C19.0104 2.90242 19.0973 2.98917 19.1577 3.09369C19.2181 3.1982 19.2499 3.31678 19.25 3.4375V18.5625C19.25 18.7448 19.1776 18.9197 19.0486 19.0486C18.9197 19.1776 18.7448 19.25 18.5625 19.25ZM1.375 2.75H2.75V19.25H1.375V2.75Z" fill="currentColor"/>
</svg>
