<svg width="20" height="20" viewBox="0 0 20 20" fill="none" xmlns="http://www.w3.org/2000/svg"><path d="M18.8322 12.9487C19.3971 11.0444 18.9322 8.88298 18.4383 7.38526C18.4351 7.32732 18.4185 7.27115 18.3899 7.22194C18.222 6.73544 18.0671 6.33582 17.9347 6.0474C18.1784 5.94298 18.3391 5.69026 18.3415 5.408V2.51335C18.3415 2.1295 18.0525 1.81836 17.6959 1.81836H9.76444C9.58617 1.81801 9.44139 1.9733 9.44107 2.16525C9.44107 2.17242 9.44127 2.17958 9.44164 2.18671C9.55139 4.27169 9.40935 5.686 8.99939 6.68332C8.99124 6.69322 8.98369 6.70369 8.97679 6.71459C8.97558 6.73192 8.97558 6.74939 8.97679 6.76672C8.82031 7.12977 8.60867 7.4621 8.35054 7.75013L8.32149 7.77098C8.32149 7.77098 8.32149 7.77098 8.32149 7.79531C7.94303 8.18385 7.50656 8.50103 7.03025 8.73355C6.20039 9.12991 5.34874 9.47111 4.48006 9.75519L4.31542 9.81427C1.29716 10.8915 0.903329 12.8444 0.909785 13.8244C0.908978 13.8383 0.908978 13.8522 0.909785 13.8661V16.3472C0.910269 16.468 0.968899 16.5798 1.06473 16.6426C1.80445 17.1271 2.60292 17.4989 3.43738 17.7476C3.609 17.7996 3.78727 17.6919 3.83553 17.5072C3.84461 17.4724 3.8486 17.4362 3.84735 17.4001V17.3202H4.32188V17.6677C4.31982 17.8398 4.43519 17.9877 4.59304 18.0152C4.87388 18.0638 5.15473 18.1021 5.42912 18.1264C5.51902 18.1345 5.60799 18.1018 5.67445 18.036C5.74087 17.9697 5.77835 17.8764 5.77775 17.7789V17.3411H6.25228V17.8345C6.25228 18.0264 6.39682 18.182 6.57509 18.182C6.84625 18.182 7.11741 18.182 7.40794 18.1403C7.57608 18.1258 7.70545 17.9744 7.70492 17.7928V17.3411H8.17945V17.6468C8.17715 17.8388 8.31979 17.9963 8.49806 17.9988C8.51675 17.9991 8.53543 17.9976 8.55391 17.9943C9.14647 17.8967 9.73055 17.7468 10.3003 17.5461L10.352 17.5218C12.6116 16.1318 14.0449 17.275 14.103 17.3237C14.1593 17.3708 14.2286 17.3964 14.2999 17.3967H14.7002C14.8785 17.3967 15.023 17.2411 15.023 17.0492V16.4619H15.4846V17.0422C15.4846 17.2341 15.6292 17.3897 15.8074 17.3897H16.8469C17.0252 17.3897 17.1697 17.2341 17.1697 17.0422V16.4619H17.6474V17.0422C17.6474 17.2341 17.792 17.3897 17.9703 17.3897H18.7676C18.9459 17.3897 19.0904 17.2341 19.0904 17.0422V13.2962C19.0936 13.1284 18.9849 12.9822 18.8322 12.9487ZM11.1719 2.5203H17.6797V5.39758H11.1719V2.5203ZM7.11418 9.4494L7.11741 9.47024C7.38203 9.7015 7.62624 9.95861 7.84696 10.2382C7.78841 10.343 7.75822 10.4634 7.7598 10.5857C7.75758 10.9523 8.03185 11.2513 8.37233 11.2537C8.71285 11.2561 8.99067 10.9609 8.99289 10.5944C8.99499 10.249 8.75074 9.95969 8.43124 9.92894C8.22706 9.62927 7.99444 9.35323 7.7372 9.10537C8.02567 8.92863 8.29707 8.72143 8.54745 8.48683C8.86054 8.80301 9.15183 9.14329 9.41904 9.50499C9.30674 9.85106 9.4763 10.2296 9.79773 10.3505C10.1192 10.4714 10.4708 10.2889 10.5832 9.94284C10.6955 9.59678 10.5259 9.21827 10.2045 9.09734C10.1378 9.07223 10.0676 9.05968 9.99687 9.0602H9.91939C9.63625 8.67648 9.32772 8.31529 8.99616 7.97948C9.15002 7.77555 9.28616 7.55688 9.4029 7.32619C9.90265 7.60623 10.3857 7.91958 10.8491 8.26443C10.8459 8.63482 11.1223 8.93784 11.4663 8.94127C11.8104 8.9447 12.0919 8.6472 12.0951 8.27681C12.0983 7.90642 11.8219 7.6034 11.4778 7.59997C11.3796 7.59897 11.2825 7.62304 11.1945 7.67021C10.7067 7.31472 10.1989 6.99211 9.67406 6.70417C10.0259 5.69643 10.1776 4.35856 10.1066 2.5342H10.5295V5.41148C10.5295 5.79533 10.8185 6.10647 11.1751 6.10647H17.2246C17.3085 6.29065 17.4505 6.61034 17.6055 7.02734H17.4731C15.5121 7.04259 13.9338 8.76626 13.948 10.8773C13.956 12.0769 14.4867 13.2028 15.3813 13.9182C12.7698 14.6584 8.84121 15.5375 5.53564 15.3082C6.14575 12.6846 5.4162 11.0687 4.94167 10.3598C5.68062 10.0989 6.40586 9.79498 7.11418 9.4494ZM4.29283 10.5579C4.64146 10.9992 5.55178 12.483 4.88357 15.2109C3.7204 15.1125 2.59069 14.745 1.57154 14.1337C1.55996 14.0543 1.55242 13.9742 1.54895 13.8939V13.8696C1.52312 13.1294 1.78137 11.5274 4.29283 10.5579ZM18.2931 16.6947V16.1144C18.2931 15.9225 18.1485 15.7669 17.9703 15.7669H16.8501C16.6718 15.7669 16.5273 15.9225 16.5273 16.1144V16.6947H16.1302V16.1144C16.1302 15.9225 15.9857 15.7669 15.8074 15.7669H14.6937C14.5155 15.7669 14.3709 15.9225 14.3709 16.1144V16.6808C13.9319 16.3854 12.3276 15.5271 10.0517 16.8963C9.64686 17.0401 9.23391 17.1562 8.81539 17.2438V17.004C8.81539 16.8121 8.67085 16.6565 8.49258 16.6565H7.37888C7.20061 16.6565 7.05607 16.8121 7.05607 17.004V17.4801H6.89144V16.9936C6.89144 16.8017 6.7469 16.6461 6.56863 16.6461H5.44848C5.27021 16.6461 5.12567 16.8017 5.12567 16.9936V17.4071L4.96104 17.3828V16.9936C4.96104 16.8017 4.8165 16.6461 4.63823 16.6461H3.51808C3.3539 16.6448 3.21497 16.7764 3.19527 16.9519C2.62233 16.7488 2.07061 16.4821 1.54895 16.1561V14.912C2.9564 15.7148 4.77704 16.0171 6.7139 16.0171C11.8595 16.0171 17.7475 13.8974 18.4416 13.6437L18.4448 16.6947H18.2931ZM18.1349 13.0286C17.8605 13.1259 17.1858 13.3761 16.2529 13.6437C14.8086 12.8912 14.2044 11.0209 14.9034 9.46612C15.3816 8.4026 16.3757 7.71995 17.4731 7.70149C17.6004 7.69957 17.7276 7.70652 17.854 7.72233L17.8573 7.73276C18.3318 9.20615 18.7579 11.3085 18.1349 13.0286Z" fill="currentColor"/><path d="M12.415 2.94081C11.8962 2.94081 11.4756 3.39355 11.4756 3.95202C11.4774 4.50971 11.8969 4.96133 12.415 4.96324C12.9338 4.96324 13.3543 4.51049 13.3543 3.95202C13.3543 3.39355 12.9338 2.94081 12.415 2.94081ZM12.415 4.26824C12.2527 4.26824 12.1212 4.12668 12.1212 3.95202C12.1212 3.77736 12.2527 3.6358 12.415 3.6358C12.5772 3.6358 12.7087 3.77736 12.7087 3.95202C12.7087 4.12668 12.5772 4.26824 12.415 4.26824Z" fill="currentColor"/></svg>