<svg width="47" height="47" viewBox="0 0 47 47" fill="none" xmlns="http://www.w3.org/2000/svg"><path d="M47 23.5C47 29.7326 44.5241 35.7099 40.117 40.117C35.7099 44.5241 29.7326 47 23.5 47C17.2674 47 11.2901 44.5241 6.88299 40.117C2.47589 35.7099 0 29.7326 0 23.5C0 17.2674 2.47589 11.2901 6.88299 6.88299C11.2901 2.47589 17.2674 0 23.5 0C29.7326 0 35.7099 2.47589 40.117 6.88299C44.5241 11.2901 47 17.2674 47 23.5ZM19.9456 14.9607C19.726 14.8043 19.4676 14.7114 19.1987 14.6922C18.9298 14.6729 18.6607 14.728 18.4211 14.8515C18.1814 14.975 17.9804 15.162 17.84 15.3922C17.6995 15.6223 17.6252 15.8867 17.625 16.1562V30.8438C17.6252 31.1133 17.6995 31.3777 17.84 31.6078C17.9804 31.838 18.1814 32.025 18.4211 32.1485C18.6607 32.272 18.9298 32.3271 19.1987 32.3078C19.4676 32.2886 19.726 32.1957 19.9456 32.0393L30.2269 24.6956C30.4173 24.5597 30.5725 24.3803 30.6795 24.1724C30.7866 23.9644 30.8425 23.7339 30.8425 23.5C30.8425 23.2661 30.7866 23.0356 30.6795 22.8276C30.5725 22.6197 30.4173 22.4403 30.2269 22.3044L19.9456 14.9607Z" fill="currentColor"/></svg>