<svg width="20" height="20" viewBox="0 0 20 20" fill="none" xmlns="http://www.w3.org/2000/svg">
<path d="M7.95474 9.92007L10.0002 11.9603L13.5798 8.38993M10.0001 0.90918C7.8899 1.98826 5.53888 2.56202 3.13565 2.56202C2.8112 2.56202 2.48769 2.55157 2.16561 2.53082C1.74984 4.42763 1.70384 6.40133 2.04698 8.34233C2.66124 11.817 4.48329 14.9648 7.19311 17.2327C8.06195 17.9599 9.00425 18.5817 10.0002 19.091C10.9961 18.5817 11.9384 17.9599 12.8072 17.2327C15.5171 14.9648 17.3391 11.817 17.9534 8.34233C18.2965 6.40133 18.2505 4.42763 17.8347 2.53081C17.5126 2.55156 17.1891 2.56202 16.8646 2.56202C14.4614 2.56202 12.1104 1.98826 10.0001 0.90918Z" stroke="currentColor"/>
</svg>
