<svg width="20" height="20" viewBox="0 0 20 20" fill="none" xmlns="http://www.w3.org/2000/svg"><path d="M9.71852 14.7678C9.10239 12.1652 7.29057 9.97473 4.79593 8.81647C3.56735 8.24604 2.23902 7.95654 0.90918 7.94797C0.986955 9.79219 1.66762 11.5874 2.88672 13.0612C4.60041 15.1331 7.1929 16.3461 9.93922 16.3638C9.91677 15.8308 9.84371 15.2966 9.71852 14.7678ZM9.71852 14.7678C9.21273 12.6313 7.90108 10.7725 6.06744 9.53449C6.09839 9.34989 6.13557 9.16565 6.17904 8.98206C6.70032 6.78008 8.07754 4.87312 10.0001 3.63672C11.9226 4.87312 13.2998 6.78008 13.8211 8.98206C13.8645 9.16564 13.9017 9.34987 13.9327 9.53446C12.099 10.7725 10.7875 12.6312 10.2817 14.7678M9.71852 14.7678C9.84367 15.2965 9.91667 15.8305 9.93914 16.3633C9.97716 16.3638 10.0152 16.364 10.0533 16.364C10.8232 16.364 11.5814 16.27 12.312 16.0895C12.3161 16.084 12.3203 16.0785 12.3244 16.073C11.5928 16.2594 10.833 16.3588 10.061 16.3638M10.2817 14.7678C10.8978 12.1652 12.7096 9.97473 15.2042 8.81647C16.4328 8.24604 17.7612 7.95654 19.091 7.94797C19.0132 9.79219 18.3326 11.5874 17.1135 13.0612C15.3998 15.1331 12.8073 16.3461 10.061 16.3638M10.2817 14.7678C10.1565 15.2966 10.0834 15.8308 10.061 16.3638" stroke="currentColor" stroke-linecap="round" stroke-linejoin="round"/></svg>