<svg width="20" height="20" viewBox="0 0 20 20" fill="none" xmlns="http://www.w3.org/2000/svg"><g clip-path="url(#clip0_5401_57)"><path d="M16.4936 7.97048H11.6235C10.0993 7.97048 8.86373 9.21519 8.86373 10.7506C8.86373 12.286 10.0993 13.5307 11.6235 13.5307H13.7339C15.258 13.5307 16.4936 14.7754 16.4936 16.3109C16.4936 17.8463 15.258 19.091 13.7339 19.091H3.50658M6.10399 14.4821C6.10399 13.037 4.94109 11.8655 3.50658 11.8655C2.07208 11.8655 0.90918 13.037 0.90918 14.4821V14.5804C0.90918 15.1542 1.08964 15.7133 1.42464 16.1773L3.50145 19.054C3.50398 19.0575 3.50918 19.0575 3.51171 19.054L5.58852 16.1773C5.92353 15.7133 6.10399 15.1542 6.10399 14.5804V14.4821ZM4.0087 13.405L4.02429 13.4124C4.33866 13.5622 4.56785 13.8485 4.64656 14.1897C4.72616 14.5347 4.64062 14.9005 4.41897 15.1755C4.19976 15.4474 3.86813 15.6084 3.52038 15.6084H3.49279C3.14503 15.6084 2.8134 15.4474 2.5942 15.1755C2.37255 14.9005 2.28701 14.5347 2.3666 14.1897C2.44532 13.8485 2.67451 13.5622 2.98888 13.4124L3.00447 13.405C3.32233 13.2535 3.69083 13.2535 4.0087 13.405ZM19.091 3.54417C19.091 2.09906 17.9281 0.90918 16.4936 0.90918C15.0591 0.90918 13.8962 2.09906 13.8962 3.54417C13.8962 4.11226 14.078 4.67136 14.4147 5.1271L16.4885 7.93432C16.491 7.93779 16.4962 7.93779 16.4987 7.93432L18.5725 5.1271C18.9092 4.67136 19.091 4.11226 19.091 3.54417ZM16.9887 2.41041L17.0239 2.42683C17.3302 2.56943 17.5545 2.84571 17.6326 3.17636C17.7126 3.51549 17.6296 3.8728 17.4085 4.14092L17.3974 4.15437C17.1818 4.41577 16.8619 4.56699 16.5246 4.56699H16.4626C16.1253 4.56699 15.8054 4.41577 15.5898 4.15437L15.5787 4.14092C15.3576 3.8728 15.2746 3.51549 15.3546 3.17636C15.4327 2.84571 15.657 2.56943 15.9633 2.42683L15.9985 2.41041C16.3126 2.26416 16.6746 2.26416 16.9887 2.41041Z" stroke="currentColor" stroke-linecap="round"/></g><defs><clipPath id="clip0_5401_57"><rect width="20" height="20" fill="white"/></clipPath></defs></svg>