<svg width="22" height="22" viewBox="0 0 22 22" fill="none" xmlns="http://www.w3.org/2000/svg">
<path d="M3.4375 2.75C3.55849 2.75003 3.67732 2.78205 3.78194 2.84281L16.8444 10.4053C16.9486 10.4657 17.0351 10.5525 17.0952 10.6569C17.1553 10.7612 17.187 10.8796 17.187 11C17.187 11.1204 17.1553 11.2388 17.0952 11.3431C17.0351 11.4475 16.9486 11.5343 16.8444 11.5947L3.78194 19.1572C3.67746 19.2177 3.5589 19.2496 3.43817 19.2497C3.31745 19.2498 3.19882 19.2181 3.09423 19.1579C2.98963 19.0976 2.90275 19.0108 2.84232 18.9063C2.78189 18.8018 2.75005 18.6832 2.75 18.5625L2.75 3.4375C2.75 3.25516 2.82243 3.08029 2.95136 2.95136C3.0803 2.82243 3.25516 2.75 3.4375 2.75ZM20.625 19.25L19.25 19.25L19.25 2.75L20.625 2.75L20.625 19.25Z" fill="currentColor"/>
</svg>
