<svg width="25" height="25" viewBox="0 0 25 25" fill="none" xmlns="http://www.w3.org/2000/svg">
<path d="M20.1449 8.18493C20.9716 9.05095 21.5321 10.1362 21.7599 11.3116C21.9876 12.487 21.873 13.7031 21.4296 14.8152C20.9862 15.9273 20.2327 16.8887 19.2587 17.5849C18.2847 18.2812 17.1313 18.6831 15.9355 18.7427L15.6246 18.7506L10.4793 18.749L12.273 20.5443C12.4024 20.6736 12.4824 20.8442 12.4989 21.0263C12.5155 21.2085 12.4676 21.3907 12.3636 21.5412L12.273 21.649C12.1437 21.7784 11.9732 21.8584 11.791 21.8749C11.6088 21.8915 11.4266 21.8436 11.2761 21.7396L11.1683 21.649L8.04019 18.5209C7.91101 18.3914 7.83134 18.2207 7.81507 18.0386C7.79879 17.8564 7.84694 17.6743 7.95113 17.524L8.04019 17.4162L11.1683 14.2881C11.3061 14.1496 11.4908 14.0679 11.6859 14.0588C11.881 14.0498 12.0724 14.1142 12.2223 14.2393C12.3723 14.3644 12.47 14.5411 12.4962 14.7346C12.5223 14.9282 12.475 15.1245 12.3636 15.2849L12.273 15.3943L10.4793 17.1865H15.6246C16.82 17.1866 17.9702 16.73 18.8401 15.9101C19.71 15.0901 20.2337 13.9689 20.3043 12.7756L20.3121 12.5006C20.3139 11.2665 19.8275 10.0819 18.9589 9.20525C18.8164 9.06095 18.7355 8.86686 18.7334 8.66401C18.7314 8.46117 18.8083 8.26548 18.9479 8.11833C19.0876 7.97118 19.279 7.88412 19.4816 7.87555C19.6843 7.86699 19.8824 7.93759 20.0339 8.07243L20.1464 8.18493H20.1449ZM13.7246 3.26149L13.8339 3.35056L16.9605 6.47868L17.0511 6.58806C17.1412 6.71852 17.1894 6.87329 17.1894 7.03181C17.1894 7.19033 17.1412 7.34509 17.0511 7.47556L16.9605 7.58493L13.8339 10.7115L13.7246 10.8021C13.5941 10.8922 13.4393 10.9404 13.2808 10.9404C13.1223 10.9404 12.9675 10.8922 12.8371 10.8021L12.7277 10.7115L12.6386 10.6021C12.5486 10.4717 12.5004 10.3169 12.5004 10.1584C12.5004 9.99985 12.5486 9.84509 12.6386 9.71462L12.7277 9.60525L14.5214 7.81306H9.37456C8.17892 7.81299 7.02845 8.26982 6.15853 9.09006C5.28861 9.91031 4.76502 11.032 4.69488 12.2256L4.68706 12.5006C4.68706 13.7818 5.20113 14.9412 6.03238 15.7881C6.16401 15.9384 6.23305 16.1334 6.22531 16.333C6.21758 16.5327 6.13365 16.7218 5.99078 16.8614C5.84792 17.0011 5.65697 17.0807 5.4572 17.0839C5.25744 17.0871 5.06403 17.0137 4.91675 16.8787C4.07305 16.0192 3.49566 14.9342 3.25403 13.7543C3.0124 12.5744 3.11682 11.3499 3.55474 10.2279C3.99266 9.10596 4.74542 8.13444 5.72246 7.43021C6.6995 6.72598 7.85921 6.31905 9.06206 6.25837L9.37456 6.25056L14.5214 6.249L12.7277 4.45681L12.6386 4.34743C12.5357 4.19704 12.4886 4.01541 12.5055 3.83397C12.5223 3.65252 12.6021 3.48268 12.731 3.35382C12.8598 3.22497 13.0297 3.14521 13.2111 3.12835C13.3925 3.11149 13.5742 3.15859 13.7246 3.26149Z" fill="currentColor"/>
</svg>
