<svg width="17" height="17" viewBox="0 0 17 17" fill="none" xmlns="http://www.w3.org/2000/svg">
<path d="M14.3232 4.70821C14.1007 4.19296 13.7799 3.72605 13.3786 3.33361C12.9771 2.93999 12.5036 2.62719 11.9841 2.41222C11.4453 2.18842 10.8675 2.07386 10.2841 2.07521C9.46562 2.07521 8.66709 2.29933 7.97314 2.72267C7.80713 2.82394 7.64941 2.93517 7.5 3.05636C7.35059 2.93517 7.19287 2.82394 7.02686 2.72267C6.33291 2.29933 5.53437 2.07521 4.71592 2.07521C4.12656 2.07521 3.55547 2.1881 3.01592 2.41222C2.49463 2.62804 2.0248 2.93849 1.62139 3.33361C1.21962 3.72561 0.898684 4.19263 0.676758 4.70821C0.445996 5.24445 0.328125 5.81388 0.328125 6.39991C0.328125 6.95275 0.441016 7.52882 0.665137 8.11486C0.852734 8.6046 1.12168 9.11261 1.46533 9.6256C2.00986 10.4374 2.75859 11.2841 3.68828 12.1424C5.22891 13.5651 6.75459 14.548 6.81934 14.5878L7.21279 14.8401C7.38711 14.9514 7.61123 14.9514 7.78555 14.8401L8.179 14.5878C8.24375 14.5463 9.76777 13.5651 11.3101 12.1424C12.2397 11.2841 12.9885 10.4374 13.533 9.6256C13.8767 9.11261 14.1473 8.6046 14.3332 8.11486C14.5573 7.52882 14.6702 6.95275 14.6702 6.39991C14.6719 5.81388 14.554 5.24445 14.3232 4.70821ZM7.5 13.527C7.5 13.527 1.58984 9.74015 1.58984 6.39991C1.58984 4.70821 2.98936 3.33693 4.71592 3.33693C5.92949 3.33693 6.98203 4.01427 7.5 5.00372C8.01797 4.01427 9.07051 3.33693 10.2841 3.33693C12.0106 3.33693 13.4102 4.70821 13.4102 6.39991C13.4102 9.74015 7.5 13.527 7.5 13.527Z" fill="currentColor"/>
</svg>
