<svg width="25" height="25" viewBox="0 0 25 25" fill="none" xmlns="http://www.w3.org/2000/svg">
<g clip-path="url(#clip0_248_2190)">
<path d="M24.1704 22.2803V6.70123C24.1823 6.44571 23.9848 6.22897 23.7293 6.2171C23.6748 6.21456 23.6204 6.22168 23.5684 6.23812V6.26127L21.4844 6.91426C21.7026 6.33016 21.8321 5.71665 21.8688 5.09423C21.8688 2.28077 19.588 0 16.7745 0C13.9611 0 11.6803 2.28077 11.6803 5.09423C11.7128 5.68754 11.833 6.27279 12.0369 6.8309L8.59135 5.59902C8.55135 5.5941 8.51094 5.5941 8.47094 5.59902H8.43389C8.37837 5.60001 8.32344 5.61101 8.2718 5.63144L1.12598 8.41011C0.961171 8.47281 0.846262 8.62361 0.82959 8.79913V16.246V24.3967C0.830342 24.6525 1.03828 24.8592 1.29409 24.8585C1.35065 24.8583 1.40669 24.8478 1.45942 24.8274L8.44315 22.1229L16.4087 24.9756C16.5048 25.0081 16.6089 25.0081 16.7051 24.9756L23.8463 22.7434C24.0469 22.6806 24.18 22.4904 24.1704 22.2803ZM16.7745 0.926224C19.0765 0.926224 20.9425 2.79228 20.9425 5.09423C20.9425 6.905 18.2241 11.9066 16.7745 14.3565C15.325 11.8881 12.6065 6.88184 12.6065 5.09423C12.6065 2.79228 14.4726 0.926224 16.7745 0.926224ZM23.2581 21.9608L17.0246 23.9105V20.3769C17.0246 20.1212 16.8173 19.9138 16.5615 19.9138C16.3057 19.9138 16.0984 20.1212 16.0984 20.3769V23.8781L8.90163 21.3032V18.3392C8.90163 18.0835 8.69427 17.8761 8.43852 17.8761C8.18277 17.8761 7.97541 18.0835 7.97541 18.3392V21.3032L1.75581 23.7252V16.5655L4.04359 15.6393C4.2884 15.5652 4.42675 15.3067 4.35266 15.0618C4.27856 14.817 4.02003 14.6787 3.77521 14.7528C3.74963 14.7605 3.72473 14.7705 3.70083 14.7825L1.75576 15.5652V9.11868L7.97535 6.71049V8.09983C7.97535 8.35558 8.18271 8.56294 8.43846 8.56294C8.69421 8.56294 8.90157 8.35558 8.90157 8.09983V6.69197L12.4536 7.96553C13.5928 10.5687 14.9032 13.0936 16.3762 15.5235C16.5088 15.7422 16.7936 15.8119 17.0123 15.6793C17.076 15.6407 17.1295 15.5872 17.1681 15.5235C18.6339 13.1079 19.9396 10.5985 21.0768 8.01184L23.2442 7.33106L23.258 14.9215L20.9101 15.4911C20.6543 15.5218 20.4718 15.754 20.5025 16.0098C20.5332 16.2655 20.7655 16.448 21.0212 16.4173C21.0581 16.4218 21.0954 16.4218 21.1324 16.4173L23.258 15.8986V21.9608H23.2581Z" fill="currentColor"/>
<path d="M16.7556 2.40332C15.2696 2.40332 14.0649 3.60799 14.0649 5.094C14.0649 6.58001 15.2696 7.78468 16.7556 7.78468C18.2406 7.78213 19.4438 6.57897 19.4463 5.094C19.4463 3.60799 18.2416 2.40332 16.7556 2.40332ZM16.7556 6.85846C15.7895 6.84584 15.0121 6.06028 15.0097 5.094H14.9912C14.9912 4.1195 15.7811 3.32954 16.7556 3.32954C17.7301 3.32954 18.5201 4.1195 18.5201 5.094C18.5201 6.0685 17.7301 6.85846 16.7556 6.85846Z" fill="currentColor"/>
<path d="M10.6981 13.9672V13.9811L8.45661 13.0132C8.34251 12.9656 8.21411 12.9656 8.10001 13.0132L6.20589 13.7774C5.96802 13.8733 5.85294 14.1439 5.94886 14.3817C6.04478 14.6196 6.31536 14.7347 6.55322 14.6387L8.26673 13.9487L10.3276 14.8194C10.3861 14.8443 10.4492 14.8569 10.5128 14.8564C10.7686 14.8585 10.9776 14.6529 10.9797 14.3971C10.9812 14.2101 10.8701 14.0405 10.6981 13.9672Z" fill="currentColor"/>
<path d="M18.27 16.6161C18.201 16.393 17.9766 16.2562 17.7467 16.2969L17.7513 16.2599L16.6028 16.5377L14.6578 15.6949C14.4224 15.5926 14.1487 15.7004 14.0465 15.9357C13.9442 16.171 14.052 16.4447 14.2873 16.547L16.3713 17.4732C16.4298 17.4982 16.4929 17.5108 16.5565 17.5103H16.6677L17.9644 17.1954C18.2087 17.1198 18.3455 16.8604 18.27 16.6161Z" fill="currentColor"/>
</g>
<defs>
<clipPath id="clip0_248_2190">
<rect width="25" height="25" fill="white"/>
</clipPath>
</defs>
</svg>
