<svg xmlns="http://www.w3.org/2000/svg" xml:space="preserve" width="480" height="480" viewBox="0 0 480 480"><g clip-path="url(#a)" transform="matrix(7.38 0 0 7.38 220 239)"><clipPath id="a"><rect width="205" height="62" x="-102.5" y="-31" rx="0" ry="0" transform="translate(74.3 -1)"/></clipPath><path d="m22.7 40.2 5.5-5.7 6.1 5.7H45L28.1 23.6 11.4 40.2h11.3Z" style="stroke:none;stroke-width:1;stroke-dasharray:none;stroke-linecap:butt;stroke-dashoffset:0;stroke-linejoin:miter;stroke-miterlimit:4;fill:#fff;fill-rule:nonzero;opacity:1" transform="translate(-28.1 -32)"/></g><g clip-path="url(#b)" transform="matrix(7.38 0 0 7.38 240 239.3)"><clipPath id="b"><rect width="205" height="62" x="-102.5" y="-31" rx="0" ry="0" transform="translate(71.6)"/></clipPath><path d="m38.3 13.6-8 8.2 5.3 5.4 2.7-2.7 14.9 14.9A23.9 23.9 0 0 1 6.9 31a24 24 0 0 1 47.4-4.3l7.2 7.6c.2-1 .2-2.2.2-3.3A30.8 30.8 0 1 0 0 31a30.7 30.7 0 0 0 30.9 31 30.6 30.6 0 0 0 29.4-21.7l.7-2.5-6.3-6.7-16.4-17.5Z" style="stroke:none;stroke-width:1;stroke-dasharray:none;stroke-linecap:butt;stroke-dashoffset:0;stroke-linejoin:miter;stroke-miterlimit:4;fill:#fff;fill-rule:nonzero;opacity:1" transform="translate(-30.9 -31)"/></g></svg>